/* XPM */
static char *result[] = {
/* columns rows colors chars-per-pixel */
"64 64 133 2 ",
"   c #071007",
".  c #09150A",
"X  c #0C1C0C",
"o  c #0F1610",
"O  c #141C14",
"+  c #0E230F",
"@  c #0E2310",
"#  c #112612",
"$  c #122B13",
"%  c #1D271D",
"&  c #1B2B1C",
"*  c #153216",
"=  c #163618",
"-  c #193C1A",
";  c #212722",
":  c #232A23",
">  c #223523",
",  c #233C23",
"<  c #2A372A",
"1  c #273C28",
"2  c #2B3A2B",
"3  c #323D33",
"4  c #1C421E",
"5  c #1F4A21",
"6  c #204B21",
"7  c #274128",
"8  c #2C452D",
"9  c #2C4A2D",
"0  c #235325",
"q  c #275D29",
"w  c #285D29",
"e  c #2F4130",
"r  c #2F4A30",
"t  c #334334",
"y  c #324C34",
"u  c #374738",
"i  c #3B433B",
"p  c #3B4C3C",
"a  c #2F5231",
"s  c #315133",
"d  c #355B37",
"f  c #375639",
"g  c #3A543B",
"h  c #365A38",
"j  c #3B5C3D",
"k  c #2B672E",
"l  c #2C682E",
"z  c #3C633E",
"x  c #3D683F",
"c  c #307333",
"v  c #3F4B40",
"b  c #3F5640",
"n  c #3F5E41",
"m  c #3E6240",
"M  c #3F6A41",
"N  c #424442",
"B  c #434B43",
"V  c #425443",
"C  c #445C45",
"Z  c #475448",
"A  c #4B564C",
"S  c #4B5B4C",
"D  c #4F5F50",
"F  c #515B52",
"G  c #5A5F5A",
"H  c #426444",
"J  c #446C46",
"K  c #476348",
"L  c #49624B",
"P  c #466948",
"I  c #4A6B4C",
"U  c #437245",
"Y  c #477449",
"T  c #4A734C",
"R  c #4C794E",
"E  c #4F6450",
"W  c #4F6A50",
"Q  c #546455",
"!  c #546C56",
"~  c #5A655A",
"^  c #5A6B5B",
"/  c #4F7651",
"(  c #557356",
")  c #527E54",
"_  c #577759",
"`  c #5A735B",
"'  c #577D58",
"]  c #5A7C5C",
"[  c #5F6A60",
"{  c #5F7C60",
"}  c #606660",
"|  c #636D63",
" . c #637364",
".. c #607861",
"X. c #677468",
"o. c #6C756C",
"O. c #677B68",
"+. c #6A7A6B",
"@. c #717772",
"#. c #727C73",
"$. c #368039",
"%. c #3C9040",
"&. c #4B804D",
"*. c #4F8551",
"=. c #518153",
"-. c #548C56",
";. c #568658",
":. c #598F5C",
">. c #559157",
",. c #5A905C",
"<. c #43A047",
"1. c #5E8160",
"2. c #5E9A61",
"3. c #638464",
"4. c #648B66",
"5. c #6C806D",
"6. c #698B6B",
"7. c #69916B",
"8. c #6F8870",
"9. c #728272",
"0. c #728A73",
"q. c #6F9671",
"w. c #739E75",
"e. c #7B947C",
"r. c #799B7A",
"t. c #5EA161",
"y. c #63A666",
"u. c #69B36C",
"i. c #77A678",
"p. c #7EAE81",
"a. c #8DA18E",
"s. c #8CAB8E",
"d. c #87C289",
/* pixels */
"<.<.<.<.<.<.<.<.<.$.$.$.$.$.%.<.$.$.$.$.$.%.<.<.<.<.$.$.$.$.$.c $.$.$.c %.<.<.<.<.<.<.$.<.<.<.<.<.<.<.%.<.$.$.$.l l c $.$.%.<.<.",
"<.<.<.$.$.$.c $.%.<.<.<.<.%.%.<.<.<.<.<.<.%.<.%.<.<.<.<.$.<.<.%.<.<.%.%.$.<.$.k k c $.c %.<.c k l c $.$.<.%.<.<.<.<.$.<.<.%.<.<.",
"%.<.<.<.<.%.%.$.%.$.k k k $.c <.$.k k c %.$.%.%.%.<.$.q q k %.k l k c k k 0 0 ;.2.;.k 0 $.0 0 ;.2.R k k $.c k l k q 0 c %.$.<.<.",
"%.%.<.$.k k q c 4 0 ;.2.;.5 q 0 0 ;.2.;.k c <.c $.0 0 ;.J P = - :.-.R k q 2.;.;.2.q %.<.$.,.-.;.2.k c $.0 = P s 8 P ) ;.l c <.<.",
"c $.0 0 R -.;.0 ) ;.;.-.q <.$.2.) ;.2.k <.%.%.%.$.2.R R 2.0 2.;.;.=.k -.;./ c $.k q k / T / $.$.q q k q T ;.P 7.P ;.2.k %.<.<.%.",
"<.c 7.:.&.,.P ;./ $.c q k P / K $.$.l k l c c -.;./ c $.P I C k q k k q 0 q $.k -.0 0 k w $.$.q R 0 C H I R / C 6 0 0 5 l $.c <.",
">.;.) $.$.k q 4 k q k -.0 5 5 c $.l *.0 0 q c c 0 q c k R = 4 q q &.4 - q =.;.2.Y P f a U K =.,.2.4.&.a >.0 - M 5 * U 5 0 c $.<.",
"%.l c $.k U 4 4 I ) 2.-.I U z 7.I ,.=.4.-.U >.q c ) P R R / { _ i.j b *.m 7.,.q H s z q q -.u.k m f R 4 j P R 3.+.6.! ] f z -.l ",
"$.$.;.;.J z 4.U 3.d.5 r 8 2.5 ) u.q j z 2.= * k w -.x 4 J f q.=.5 J m 2.* 4 5 k P z - q 5 0 0 k j z k 5 j u.0 ( 6.z g g 2.q c %.",
"<.c 2.u.k z P f - - k :.-.k 5 q 0 k z R = 4 / 2.K 4 - w ;.f 4 4 q ;.2.q 0 0 0 = 4 I 2.T 4 q k k $.k <.0 q 0 = r 8 4 n h 5 q $.c ",
"<.k l q k -.>.5 k k k $.l %.q c k q c 0 2.=.;.,.4 $.l l l 4 $.k k $.k %.c %.c ) ) ) ,.l %.%.%.k %.%.$.k $.q 4 4 = = - I 7.=.l c ",
"%.l $.l l c l $.$.%.c $.%.%.%.%.$.c ;.) I $.$.k q q c 0 %.$.$.%.c %.%.$.<.-.;./ $.$.k k k $.c <.<.<.<.%.%.$.k $.k / ) ) >.l <.<.",
"<.%.%.%.c c 5 5 0 0 q $.$.0 0 0 0 w c l $.$.k -.0 0 c %.<.<.$.<.<.<.<.<.<.%.q $.$.k >.0 0 c $.<.<.%.<.<.<.%.<.;.;./ k k 0 0 0 c ",
"<.<.%.$.<.<.<.<.<.$.c $.<.<.<.<.$.c l $.;.:.,.2.{ R M 2.q l c c $.$.%.%.$.$.k / / ;.;.1.-.&.u.c %.%.<.<.<.%.<.$.q $.$.l >.0 0 k ",
"<.%.c l $.$.4 $ $ = 5 0 $.4 $ * = 4 k $.2.y.k J P 2.0 c <.%.<.<.<.<.%.k k <.$.2.u.k P H 2.5 q $.$.$.%.<.<.%.c c c f 8 1 7 e x x ",
"<.<.c 5 = . p 9.5.u . X . p 9.5.g $ 0 q q 5 q ;.;.- 6 q %.k k k c %.c %.$.<.5 4 = 5 / ;.k $.%.<.<.<.%.<.<.c 0 c k 7 9 g L V 9 4 ",
"%.c $.k n Q F ~ v = $.( [ F 9.K 4 <.%.k k 0 0 4 * ;.T / = - ;.2.;.k c c $.5 - J z y 5 5 <.c k k c %.$.<.<.c k $.5 y % & u y - $.",
"$.c ;.| ~ V 0 - X # ; < : 0 4 $ $ = 4 4 $.$.k -.T T 2.0 2.;.;.;.k %.%.<.c 2./ ) ;.5 k c 5 5 ;.2.;.k c <.<.$.5 r O o i v v . $ c ",
"%.%.%.5 @ = $ y 2 .   . 4 4 y 1 . X 5 c <.R J T c $.f f y k q k k q $.z ;./ c $.q q k k d J J R 0 %.<.<.c $.c 5 t 2 | #.V $ - c ",
"l q $ $ ~ #.o.D F o.F #.@.3 ^ [ #.` 0.4.5 w 0 $.$.k *.= 4 q q -.0 5 c $.k $.c k Y 5 r m T c $.q k q $.c c c _ S X.D F S & 1 d 7 ",
"c $ C / ` a.g 3 N ~ u O S ' t B ^ V $ 0 $.$.$.;.) ;.;.{ ..( p.U P h d R 5 J R 2.-.] Y m / - - d 5 4 c %.%.c g V V s > u . o 2 = ",
";.) I 6 X .   < ~ 3 X . X X V 8.K = q k l <.$.2.:.4 P j w.h 6 J P ) - c $.-.u.k m r J @ > { q.3.b x &.>.5 5 - = p Z p +.3 i t w.",
"$.c c 4 + g . X * = 5 $ * + $ = = $.$.<.%.<.q k 0 q -.I - - 0 ;.R 5 5 k 0 0 0 q K / 0 / { 6./ 8 z 2.q k 5 - c 5 ^ 0.B ~ | +.t I ",
"$.$.;.) ) ) ` g M =.0 k k q 5 c c c <.<.<.$.l $.0 0 q = k - 0 4 = ;.,.=.4 q l k c H ;.b 6 4 4 r f 5 q c 5 = c $ u V # A Q V = q ",
"<.$.2.u.k P J 2.0 l %.<.c l l c %.$.<.<.<.%.%.%.%.c %.c c $.k ,.) ) 2.k %.%.%.l %.$.q 0 k 5 J 5 @ q 4 0 ;.;.R X * # $ I C l l %.",
"$.5 0 4 0 T ;.l $.l $.0 5 / 7.>.l c <.<.%.%.%.<.$.c k k $.R ;.z k k 0 0 q c c %.$.$.c ;.) ( H ! Y s w./ ) ,.w 0 l 6 $ l 0 $.%.<.",
"$.k $.k l c l %.l c k ;./ ) 2.0 $.$.$.c $.c $.0 5 ;.2.-.q q k $.c k -.0 5 c $.c l %.c 2.u.k j J 3.K C $.$.k k q c l c %.%.%.<.<.",
"$.q q k l l %.$.<.-.;./ c c k k l $.c %.$.<.$.2.J P R 4 q k $.H j z U ] U *.u.c $.$.0 q 0 5 P / 5 6 q $.l -.0 0 c c <.<.%.<.<.<.",
"q -.2.-.w k %.<.$.k 4 0 k 5 -.4 = 6 k $.$.Y ;./ $.$.k 4 = q $ s 7./ ! 1 M 5 q $.%.%.6 k = = m y H 5 I ;.2.2.4.-.&.y.c %.%.<.<.<.",
";.;.2.q <.c c 5 4 P R ..C I I ! { ] r.5 k c q $.k 4 s = 4 5 I I C I g 2.k $.$.<.$.%.%.c -.m f h q $.2.u.q P J 2.w c <.<.<.<.<.<.",
"$.$.l q w $.q U f -.J I u.0 Q S 6.f 6 %.c q q 8 8 3.3.O.L L Q 4 5 = 0 = 5 5 c %.c <.-.:./ c $.q l - 0 - k ;.2.l $.%.<.<.<.<.<.<.",
"$.l -.6 0 I ) / c c = 5 > y Q ;.0 0 w 4 0 c k q.7.I ..8 ;.- 0 k - n $ @ f -.;.k k <.%.l c $.0 U - $ 5 0 k $.6 $.c $.$.%.<.<.<.<.",
";.2.2.4.-.U U q c 0 f 5 * * q 0 l Y 0 5 k *.K K - 0 r a = 0 K ) 2.;.8.{ ( p.5 %.$.$.c c -.;.2.2.4.R M *.0 $.$.%.<.<.<.%.<.<.<.<.",
"u.k J z R 6 q ;.;.2.R P z 9 { H *.,.4.-.R >.* q 5 5 f @ 0 0 ;.u.s S A ;.5 5 k k q 5 %.c -.u.0 2 r J 5 0 %.<.$.l k c %.$.<.<.<.<.",
"0 k J f - k q -.u.k r 8 2.- H :.0 f m -.5 q c =.) ) :._ *., h * 5 p R 0 0 &.0 0 c $.<.5 5 $ = { q.P 0 4 $.0 0 ;.2.;.l c <.<.<.<.",
"k k $.k %.%.q q 0 k R -.q 5 q 0 k ;.-.5 0 %.$.2.u.k n J -.- 0 0 6 k y ;.-.2.4.>.R 2.q q q / I / / k $.<.$.-.;.:.2.k <.<.<.%.<.<.",
"$.c c q q k q l k q c q %.5 0 - 5 c 0 <.$.<.k l 5 q R ;.k q - - 0 k U t.k J J 2.q l <.*.=./ q c q 0 k J m R $.$.k k k $.c <.<.<.",
"$.0 0 ;.2.-.q k %.c k c 5 5 =.2.W q k %.<.%.k c k k q 0 0 5 ;.:.;.- 5 0 k ;.R 0 l c $.$.l $.c k -.0 0 k q $.c q >.0 = 5 q k k c ",
"c 2.;.;.2.k <.<.$.$.<.$.2.;.;.2.k <.<.<.%.<.%.%.$.l %.c :.;.;.,.q l $.q k c k <.%.%.$.c $.' ;.2.2.1.R J 2.m / U 2.4.U z >.q c k ",
";./ $.$.k k k $.k <.-.;.) $.c q k k $.c <.<.<.<.%.c R / I k c k k q k q k %.c q l 0 q $.$.2.u.k J j R 5 5 ;.R - s J m @ * 0 $.q ",
"k $.$.k -.0 0 c %.<.%.q $.$.k U 4 4 q c %.<.$.<.%.<.%.k c $.q -.0 0 c k c q 6 ;.2.;.q c q k 0 k ) 2.q $.0 k 5 $ r & . v C Z - 5 ",
"$.;.;.2.2.4.R J ,.5 q k / -.2.2.4.>.&.u.k $.$.%.%.l 0 0 T ;.;.2.4.*.Y y.q -./ ;.2.l <.%.l c 0 5 q 0 c q 4 4 - 4 = t 3 | e.b k c ",
"$.2.u.q J U ,.k 0 k <.k -.t.k f 8 z 4 l $.<.c $.- = ;.R 6.;.6 P J ,.q z ;.) $.c k l k c l %.%.c k c 5 5 R M J Q Z X.C I K $ - k ",
"q k 5 q =.,.0 0 q k %.5 5 4 = 8 3./ / q k %.<.$.2.R ;.f 5 6 k ;.,.k $.$.l $.$.k -.0 5 k $.<.c 6 k q -.P ;.-.k R b C 6 = g . . 5 ",
"k $.k 5 k = 0 R 2.;.0 4 c 0 / / P 2.q <.%.<.R -.) c c 5 0 4 0 q 0 c q k k / ;.2.2.4.-.f >.- - ) 6...y q $.0 - - = Z L S 8.i t g ",
"%.$.$.c c -./ ;.2.k %.%.;.T K c c q k k $.c %.k $.c l *.5 4 0 $.%.k w <.c -.u.k J m -.q q 2.;.;.,.4 $.$.k , X 4 - +.r.C [ | 8.3 ",
"<.%.<.;.;./ $.$.k k l $.l l $.$.k -.0 0 k c $.$.R ;.2.2.] &.U u.q q 0 c q 0 0 k ;.-.k R *.) c k 0 0 f P U J y -.# Q p # F Q C - ",
"<.<.%.%.k $.$.k >.0 5 q c c ;.R 2.2.4.-.M ;.c c -.u.k J J M 5 - 0 -.2.) 5 q k k $.k <.$.k c q 5 -.4 s &.q P n Y . $ @ $ I H k l ",
"<.%.$.$.$.;.;.,.t.4.U z u.0 -.t.k J J 2.q l <.q k 0 k R :.k k ,.;.;.2.k %.%.%.k %.$.c $.$.;.;.,.2.^ J f ;.z -.0 4 q 4 $ 0 4 l c ",
"<.q 0 $.k R t.k J J t.k c k k 0 k -.2.k $.%.%.l $.k l c l :.) T $.$.k k k $.c <.<.c k <.$.2.u.k H f ;.- 6 $.l %.$.%.%.c %.%.%.%.",
"<.<.%.<.k k 5 k -.7.l $.$.c $.k l $.c <.%.<.<.%.%.%.c %.%.c l $.$.k >.4 4 q k $.%.%.%.<.q k 0 k ( ) 6 w q $.$.$.%.<.k l l c %.$.",
"<.c k k 4 c 0 k c l <.$.<.%.%.$.$.%.$.%.<.<.<.<.<.<.$.c l k k ) ) 2.2.4.-.&.u.c $.%.<.%.k c k k $.k <.%.<.%.<.c $.0 5 -.2.:.l c ",
"0 0 ;.7.*.q k q c c c $.%.<.<.<.<.<.<.$.$.$.$.c %.%.<.c l <.$.;.y.q J j / - 0 %.$.<.<.<.$.$.$.c c q k k $.c $.<.c 2.;.;.2.k <.<.",
"2.-.-.2.q <.<.<.%.<.$.$.c $.$.$.%.<.<.<.<.<.%.$.$.<.$.k q c 0 0 - 0 C I f R R k c <.<.<.<.c $.0 0 ;.2.;.l l <.-.:.n k k 0 0 k c ",
") $.$.w q q c 0 c k c $.$.<.<.$.$.%.<.$.c k c k l 0 0 ;.2.R - 0 k 0 R f ;.-.k <.<.<.%.%.%.<.c 2.;.;.,.k <.<.%.$.l $.$.k >.0 6 c ",
"c $.l >.- 4 = 4 R 2.J 4 5 c %.$.c $.0 0 ;.-.R k q 2.;.;.2.k $.%.R j f - - = = - k c <.%.$.Y J m k c l k l l q c $.P f z U ] U &.",
";.;.-.-.4.U 3.W j r $ -.2.;.0 k <.$.2.;.;.-.k =.;./ c $.k k k c 0 l c $.l >.0 5 q $.<.<.%.%.k c $.q >.0 0 0 5 $.4 r 6./ ! 8 J q ",
"2.u.q P ! ` g q k / I P ;.6 %.<.-.R / $.c k k k 0 k c k >.0 4 4 5 l P > & & 8 z 9 t.k $.q 0 0 m R R 2.4.&.M 2.q I P C / f 2.k $.",
"k 0 k ;.-.- k J P ! 4 4 5 q k c q k $.$.l &.4 4 q ) ;.2.,.4.z , 9 X . B o.o.i & = q c - = ;.;.O.U 5 J J >.q T ) C l 6 5 0 4 $.k ",
"c k q k q c ) R m R / f ] j = q k $.:.R 7.U m >.z i.:.q H z U 4 q C o.} +.S 1 k c $.l 2.) -.I 5 0 k ;.-.l $.$.l c c q T 5 5 k %.",
"%.%.q q %.k / -.0 ! ! 8.I ] Y n u.q -.,.k J z ,.= 4 q k -.-.0 R | G B * $ + X * 4 n ;./ $.l 5 0 5 0 q k %.c $.$.;.;.2.2.4.>.&.u.",
"<.<.<.%.<.5 4 0 0 6.p.5 m H 2.0 c k k 0 k ;.2.k 0 c k k $.c <.$.0 * 5 - u 3   X 5 c k c l k *.5 5 6 $.%.k w <.$.2.u.q J J 2.q c ",
"<.%.<.<.%.c c l - 0 = k =.2.k c $.l $.c k $.c <.$.%.$.c $.$.k 0 0 H  .9.e.0.#.E ` / - W / 2.2.4.>.&.u.c %.$.<.q k 0 k ;.2.k $.%.",
"<.<.<.<.<.%.%.c 5 c q k $.l <.%.<.%.%.%.c $.%.%.<.<.<.<.<.c * 4 $.( s.( u B [ e X 0 $.2.u.k J J ,.q c <.<.<.%.k $.k k $.k <.%.<."
};
